<svg width="19" height="13" viewBox="0 0 19 13" fill="none" xmlns="http://www.w3.org/2000/svg">
<path d="M0.96 0.912C1.20533 0.869333 1.46667 0.831999 1.744 0.799999C2.032 0.757332 2.31467 0.725333 2.592 0.704C2.88 0.682666 3.15733 0.666666 3.424 0.655999C3.69067 0.645333 3.936 0.639999 4.16 0.639999C4.68267 0.639999 5.19467 0.687999 5.696 0.783999C6.208 0.879999 6.66133 1.04533 7.056 1.28C7.46133 1.51467 7.78133 1.84 8.016 2.256C8.26133 2.66133 8.384 3.17333 8.384 3.792C8.384 4.70933 8.17067 5.456 7.744 6.032C7.31733 6.608 6.74667 7.008 6.032 7.232L6.816 7.728L9.376 12H6.848L4.304 7.616L3.152 7.408V12H0.96V0.912ZM4.32 2.592C4.096 2.592 3.872 2.59733 3.648 2.608C3.43467 2.61867 3.26933 2.64 3.152 2.672V5.92H4.08C4.688 5.92 5.17333 5.78133 5.536 5.504C5.89867 5.22667 6.08 4.768 6.08 4.128C6.08 3.648 5.93067 3.27467 5.632 3.008C5.33333 2.73067 4.896 2.592 4.32 2.592ZM16.665 0.799999H18.745V8.032C18.745 8.75733 18.649 9.38133 18.457 9.904C18.265 10.4267 17.9983 10.8587 17.657 11.2C17.3157 11.5413 16.8997 11.792 16.409 11.952C15.9183 12.112 15.3797 12.192 14.793 12.192C11.9557 12.192 10.537 10.896 10.537 8.304V0.799999H12.729V7.872C12.729 8.30933 12.7663 8.68267 12.841 8.992C12.9263 9.29067 13.0543 9.536 13.225 9.728C13.3957 9.90933 13.609 10.0427 13.865 10.128C14.121 10.2027 14.4197 10.24 14.761 10.24C15.433 10.24 15.9183 10.0533 16.217 9.68C16.5157 9.30667 16.665 8.704 16.665 7.872V0.799999Z" fill="#333333"/>
</svg>
